<?xml version="1.0" encoding="utf-8"?>
<!-- Generator: Adobe Illustrator 21.0.2, SVG Export Plug-In . SVG Version: 6.00 Build 0)  -->
<svg version="1.1" id="Capa_1" xmlns="http://www.w3.org/2000/svg" xmlns:xlink="http://www.w3.org/1999/xlink" x="0px" y="0px"
	 viewBox="0 0 50.7 45.1" style="enable-background:new 0 0 50.7 45.1;" xml:space="preserve">
<style type="text/css">
	.st0{fill:#FFFFFF;}
</style>
<path class="st0" d="M27.8,40.2c0.9,0.1,1.7,0,2.5,0.1c1.9,0.2,3.4,1.8,3.5,3.8c0,1.1,0,1.1-1,1.1c-5.1,0-10.1,0-15.2,0
	c-0.1,0-0.3,0-0.4,0c-0.2,0-0.2,0-0.3-0.2c-0.4-2.1,1.2-4.3,3.3-4.6c0.5-0.1,1-0.1,1.6-0.1c0.4,0,0.8,0,1.1,0c0.2,0,0.3-0.1,0.3-0.3
	c0-0.2,0-0.4,0-0.6c0-2.2,0-4.4,0-6.5c0-0.4-0.1-0.6-0.5-0.7c-1.9-0.7-3.4-2-4.7-3.5c-0.6-0.8-1.2-1.6-1.7-2.4
	c-0.2-0.3-0.4-0.5-0.7-0.6c-7.6-3.3-12.5-9-14.7-17C0.3,6.6,0,4.7,0,2.7C0,2-0.1,2.1,0.6,2.1c2.9,0,5.9,0,8.8,0c0.1,0,0.2,0,0.3,0
	c0.3,0,0.3-0.1,0.3-0.4c0-0.5,0-0.9,0-1.4c0-0.3,0.1-0.4,0.4-0.3c0.1,0,0.2,0,0.3,0c9.8,0,19.7,0,29.5,0c0.1,0,0.2,0,0.2,0
	c0.3,0,0.4,0.1,0.4,0.4c0,0.4,0,0.8,0,1.2c0,0.5,0,0.5,0.5,0.5c2.9,0,5.7,0,8.6,0c0.7,0,0.8,0,0.7,0.7c-0.2,5.2-1.7,9.8-4.7,14
	c-2.7,3.8-6.2,6.6-10.5,8.5c-0.3,0.1-0.5,0.3-0.6,0.6c-1.2,1.9-2.6,3.7-4.5,5c-0.7,0.5-1.4,0.9-2.2,1.2c-0.2,0.1-0.3,0.1-0.3,0.4
	C27.8,35.1,27.8,37.6,27.8,40.2z M37.4,21c0.1,0,0.1,0,0.2-0.1c3.7-2.2,6.5-5.1,8.3-9.1c0.9-2.1,1.4-4.2,1.5-6.5
	c0-0.5,0-0.5-0.5-0.5c-1.9,0-3.8,0-5.6,0c-0.5,0-0.5,0-0.5,0.5c-0.1,1.5-0.3,2.9-0.5,4.4c-0.4,3-1.1,5.9-2,8.7
	C37.9,19.3,37.6,20.1,37.4,21c-0.1,0-0.1,0-0.1,0C37.3,21,37.3,21,37.4,21z M21.5,20.5c0.2,0,0.4-0.1,0.6-0.2
	c0.9-0.6,1.8-1.1,2.7-1.7c0.3-0.2,0.6-0.2,0.9,0c0.9,0.6,1.9,1.2,2.8,1.8c0.5,0.3,1.1,0.2,1.4-0.3c0.1-0.3,0.1-0.6,0-0.9
	c-0.2-1-0.5-2-0.7-3c-0.1-0.4,0-0.7,0.3-0.9c0.9-0.7,1.7-1.4,2.6-2.1c0.3-0.2,0.5-0.5,0.4-0.9c-0.1-0.4-0.5-0.7-1-0.8
	c-1.1-0.1-2.2-0.2-3.3-0.2c-0.4,0-0.5-0.1-0.6-0.5c-0.4-1.1-0.9-2.2-1.3-3.2c-0.1-0.4-0.4-0.6-0.8-0.6c-0.4,0-0.7,0.2-0.9,0.5
	c-0.1,0.1-0.1,0.3-0.2,0.4c-0.4,1-0.8,1.9-1.2,2.9c-0.1,0.3-0.2,0.5-0.6,0.5c-0.4,0-0.9,0.1-1.3,0.1c-0.7,0-1.4,0.1-2.1,0.1
	c-0.5,0-0.8,0.3-0.9,0.8c-0.1,0.4,0.1,0.7,0.4,1c0.7,0.6,1.4,1.2,2.1,1.8c0.6,0.4,0.8,0.9,0.5,1.6c-0.3,0.9-0.5,1.9-0.7,2.9
	C20.4,19.9,20.8,20.4,21.5,20.5z M13.6,21.2c0.1-0.2,0-0.4-0.1-0.5c-1.9-4.9-2.9-10.1-3.3-15.3c0-0.5,0-0.5-0.6-0.5
	c-1.9,0-3.8,0-5.7,0c-0.6,0-0.6,0-0.6,0.6c0.1,1.4,0.3,2.9,0.7,4.3c1.1,3.8,3.3,6.8,6.4,9.3C11.4,19.9,12.5,20.6,13.6,21.2z"/>
</svg>
