<?xml version="1.0" encoding="utf-8"?>
<!-- Generator: Adobe Illustrator 21.0.2, SVG Export Plug-In . SVG Version: 6.00 Build 0)  -->
<svg version="1.1" id="Capa_1" xmlns="http://www.w3.org/2000/svg" xmlns:xlink="http://www.w3.org/1999/xlink" x="0px" y="0px"
	 viewBox="0 0 53.1 53.1" style="enable-background:new 0 0 53.1 53.1;" xml:space="preserve">
<style type="text/css">
	.st0{fill:#FFFFFF;}
</style>
<path class="st0" d="M26.6,0c14.8,0.1,26.3,12,26.6,26c0.3,14.8-11.6,27-26.3,27.1C11.7,53.3,0.3,41,0,27.2
	C-0.3,12.6,11.4,0.1,26.6,0z M50,26.6C50,13.7,39.4,3.1,26.5,3.1C13.9,3.1,3.3,13.4,3.1,26.2C2.9,39.6,13.8,50,26.4,50
	C39.5,50,50,39.6,50,26.6z"/>
<path class="st0" d="M13.2,25.3c0.1-2.1,0.1-4.2,0.2-6.3c0.2-3.6,3.3-6.6,6.9-6.8c4.4-0.3,8.8-0.3,13.1-0.1c2.7,0.1,5.1,1,6.7,3.4
	c0.9,1.4,1.3,2.9,1.3,4.6c0,4.2,0.1,8.3,0,12.5c-0.1,4-2.4,6.7-6.1,7.5c-1.1,0.2-2.3,0.3-3.4,0.3c-3.9,0-7.7,0-11.6-0.2
	c-3.4-0.2-6.3-2.8-6.7-6.2c-0.3-2.5-0.3-5.1-0.4-7.6C13.3,26,13.3,25.7,13.2,25.3C13.3,25.3,13.3,25.3,13.2,25.3z M26.2,37.9
	c2.8-0.1,5.1-0.1,7.4-0.2c3.1-0.1,5.1-2,5.2-5.1c0.1-4.3,0.1-8.5,0-12.8c0-2.3-1.6-4.2-3.8-4.7c-1-0.2-2.1-0.3-3.2-0.3
	c-3.7,0-7.5,0-11.2,0.2c-2.4,0.1-3.9,1.6-4.4,3.8C16.1,19.5,16,20.3,16,21c0,4,0,8,0.1,12c0.1,2.4,1.8,4.3,4.2,4.6
	C22.4,37.8,24.5,37.8,26.2,37.9z"/>
<path class="st0" d="M27.5,33.5c-4.1,0-7.3-3.2-7.3-7.3c0-4.1,3.2-7.3,7.3-7.3c4.1,0,7.3,3.3,7.3,7.3C34.8,30.3,31.5,33.5,27.5,33.5
	z M32.1,26.2c0-2.5-2.1-4.6-4.6-4.6c-2.5,0-4.7,2.1-4.7,4.7c0,2.5,2.1,4.6,4.5,4.7C29.9,31,32.1,28.8,32.1,26.2z"/>
<path class="st0" d="M35,17c1,0,1.7,0.8,1.7,1.7c0,1-0.8,1.8-1.7,1.8c-0.9,0-1.8-0.8-1.8-1.8C33.3,17.8,34,17,35,17z"/>
</svg>
