<svg id="Capa_1" data-name="Capa 1" xmlns="http://www.w3.org/2000/svg" viewBox="0 0 405.97 119.2"><defs><style>.cls-1{fill:#00335e;}.cls-2{fill:#6f1848;}.cls-3{fill:none;}</style></defs><title>logo</title><path class="cls-1" d="M0,83a8,8,0,0,1,.2-1.73l.4-1.81q.2-.92.32-1.81a5.31,5.31,0,0,0,0-1.73L5.33,50.19a6.28,6.28,0,0,1-.1-1.71,5.77,5.77,0,0,1,.4-1.71,5.93,5.93,0,0,1,.92-1.55A5.34,5.34,0,0,1,8,44l1.8,1.76s-.09.48-.27,1.3l-.7,3.26L7.79,55q-.57,2.65-1.15,5.57t-1.15,6q-.57,3-1,5.86t-.7,5.23a38.11,38.11,0,0,0-.27,4.08c0,.22,0,.39,0,.52a.6.6,0,0,0,.1.3.94.94,0,0,0,.27.23,5.78,5.78,0,0,0,.52.28q1.16-1.5,2.7-3.81t3.31-5.09q1.78-2.78,3.76-5.82t4-6q2-3,4.13-5.62A54.82,54.82,0,0,1,26.43,52a23.28,23.28,0,0,1,3.84-3.23,6.38,6.38,0,0,1,3.41-1.2h.87l1.8,3.53v21.3h.87q1.13-1.2,3.18-3.89t4.78-6.42l6-8.25q3.31-4.53,7-9.4t7.64-9.87q3.94-5,7.94-9.62t7.92-8.69a93.53,93.53,0,0,1,7.57-7.07,41.75,41.75,0,0,1,6.91-4.74,12.85,12.85,0,0,1,5.92-1.73h.47a119.38,119.38,0,0,0-11.72,9.37Q85.43,17,80.63,22.33T71.51,33.28q-4.31,5.62-8.39,11.4T55.06,56.31Q51.09,62.17,47,68a11.84,11.84,0,0,0-1.1,1.46q-.77,1.13-1.8,2.76L41.8,75.78l-2.48,4-2.43,3.88q-1.18,1.88-2.13,3.33t-1.6,2.33q-.65.88-.82.88a1.92,1.92,0,0,1-1.28-.38,2.28,2.28,0,0,1-.67-1,4.22,4.22,0,0,1-.25-1.28q0-.7,0-1.36a50.21,50.21,0,0,1,.42-6.42q.42-3.23.92-6.52t.92-6.61A53.2,53.2,0,0,0,32.78,60V53.75l-.9-.87A58.24,58.24,0,0,0,26.56,58q-2.66,2.88-5.24,6.19t-5,6.89q-2.41,3.58-4.59,7.17t-4,7.07Q5.86,88.8,4.43,91.89H.87q-.23,0-.37-.53A11.33,11.33,0,0,1,.27,90q-.1-.83-.15-1.86t-.08-2q0-1,0-1.81ZM104.37,1.33a.28.28,0,0,1,.25.13.59.59,0,0,1,.08.32.58.58,0,0,1-.08.32.27.27,0,0,1-.25.13.31.31,0,0,1-.27-.13.51.51,0,0,1-.1-.32.51.51,0,0,1,.1-.32A.32.32,0,0,1,104.37,1.33ZM107.9,0l-1.8.9a1.63,1.63,0,0,1,.68-.78,2,2,0,0,1,.68-.12Z"/><path class="cls-1" d="M53.92,82.67a17.16,17.16,0,0,1,.7-3.23q.6-2,1.55-4.44t2.2-5q1.25-2.56,2.6-4.86a38.06,38.06,0,0,1,2.75-4.09,12.07,12.07,0,0,1,2.7-2.66,1.39,1.39,0,0,1,.55.32,4.74,4.74,0,0,1,.67.67,6.72,6.72,0,0,1,.55.77,1.3,1.3,0,0,1,.23.58l0,.57,0,.53-6.56,17q0,.5-.07.9t0,.72c0,.23,0,.42,0,.55q-.1,1.2-.13,2.25a5.45,5.45,0,0,0,.22,1.83,2.36,2.36,0,0,0,1,1.26,4.36,4.36,0,0,0,2.11.58q4.76.33,8.15.52t5.92.25q2.53.07,4.46,0t3.78-.32q1.85-.23,3.88-.6t4.76-.9l6.41-1.23q3.68-.7,8.84-1.56a52.77,52.77,0,0,0-7.31,1.3q-3.38.87-6.69,1.88t-6.77,2A72.43,72.43,0,0,1,82.69,90a80.53,80.53,0,0,1-9,1,89.43,89.43,0,0,1-11.1-.1,10.87,10.87,0,0,1-3.21-.72,9.88,9.88,0,0,1-2.86-1.66,7.94,7.94,0,0,1-2-2.53A6.2,6.2,0,0,1,53.92,82.67ZM68.29,41A6.26,6.26,0,0,1,69,38.62a4.5,4.5,0,0,1,1.83-1.85,5.26,5.26,0,0,0,1.2.28l1.75.27q.95.15,1.95.38a9.49,9.49,0,0,1,1.8.6,3.65,3.65,0,0,1,1.28.93,1.91,1.91,0,0,1,.45,1.36q-.2.47-.4.87a5.39,5.39,0,0,1-.38.7,3.35,3.35,0,0,1-.42.53,4.79,4.79,0,0,1-.58.7q-.42.43-1,1t-1.18,1.08l-1.21,1q-.58.48-1.08.83a3.92,3.92,0,0,1-.77.45L71,46.36a18.51,18.51,0,0,1-1.31-1.61,9,9,0,0,1-1-1.8A4.32,4.32,0,0,1,68.29,41Z"/><path class="cls-1" d="M106.47,105.5a30.67,30.67,0,0,1-.6-4.11q-.2-2.35-.28-5t-.08-5.47q0-2.83.05-5.57t.1-5.26q.05-2.51.07-4.56T105.67,72a8,8,0,0,0-.27-2L105,65.63a14.65,14.65,0,0,0-2.66,2.13q-1.43,1.4-3,3.2T96.3,74.8q-1.58,2-3.11,4.08l-2.95,3.91q-1.42,1.88-2.63,3.31a23.63,23.63,0,0,1-2.16,2.28,2.67,2.67,0,0,1-1.55.85,3.61,3.61,0,0,1-1.4-.22,1.52,1.52,0,0,1-.75-.67,2.73,2.73,0,0,1-.3-1.13q-.05-.68-.05-1.58a21,21,0,0,1,.47-4.23q.47-2.26,1.16-4.68t1.53-4.86q.83-2.45,1.58-4.76t1.3-4.38A21.23,21.23,0,0,0,88.13,59a3,3,0,0,1,.45-.7A1.59,1.59,0,0,1,89,58a1.24,1.24,0,0,1,.47-.13l.47,0a3,3,0,0,1,1.48.35q.62.35,1.55.78v.65q0,.42,0,.88t0,.88V62a7.36,7.36,0,0,1-.42,2.31,25.1,25.1,0,0,1-1,2.58q-.62,1.33-1.35,2.7t-1.35,2.65a23.32,23.32,0,0,0-1,2.43,6.32,6.32,0,0,0-.4,2q0,.47,0,1.2v1.2a21.28,21.28,0,0,0,3-2.93q1.6-1.86,3.33-4.08t3.54-4.49q1.81-2.28,3.58-4.18a24.25,24.25,0,0,1,3.46-3.13,6.57,6.57,0,0,1,3.23-1.36,1.89,1.89,0,0,1,1.56.58,5.39,5.39,0,0,1,1,1.58,9,9,0,0,1,.62,1.95q.2,1,.27,1.68A14,14,0,0,1,111,66.4q-.1,1.4-.28,3.59t-.45,5q-.27,2.81-.57,5.87t-.62,6.24q-.32,3.18-.65,6.09t-.63,5.39q-.3,2.48-.57,4.19a23.52,23.52,0,0,1-.48,2.48Q106.57,106,106.47,105.5Z"/><path class="cls-2" d="M151.57,101.91a27.24,27.24,0,0,1,.73-6.29q.73-3.1,1.6-6.14t1.6-6.12a27,27,0,0,0,.73-6.27,5,5,0,0,0-1.95.47A14.15,14.15,0,0,0,152,78.78a25.87,25.87,0,0,0-2.31,1.75q-1.17,1-2.26,2-2.56,2.4-5.23,5.42h-.8a2.85,2.85,0,0,1-1.71-.63,8.16,8.16,0,0,1-1.58-1.58,12.73,12.73,0,0,1-1.28-2,15.75,15.75,0,0,1-.85-1.95L125.14,91h-.77a4.79,4.79,0,0,1-1.83-.4,7.05,7.05,0,0,1-1.76-1,6.21,6.21,0,0,1-1.33-1.48,3.11,3.11,0,0,1-.53-1.7,30.27,30.27,0,0,1,.4-4.94q.4-2.41,1-4.78t1.25-4.74q.67-2.38,1.18-4.81a48.27,48.27,0,0,0,.78-5,29.61,29.61,0,0,0,.07-5.26,12.53,12.53,0,0,1,1-.83q.67-.53,1.38-1t1.36-.88a2.25,2.25,0,0,1,.95-.38,1.64,1.64,0,0,1,.83.38A8.68,8.68,0,0,1,131,56.08a1.64,1.64,0,0,1,.38.83V72.42a24.1,24.1,0,0,0,3-2.2q1.58-1.33,3.18-2.56a25.9,25.9,0,0,1,3.18-2.11,6.25,6.25,0,0,1,3-.88,2.86,2.86,0,0,1,2,.73,15,15,0,0,1,1.53,1.6,15.84,15.84,0,0,0,1.51,1.6,2.8,2.8,0,0,0,2,.73,7.08,7.08,0,0,0,3.41-.8,11.88,11.88,0,0,0,2.71-2,26.58,26.58,0,0,0,2.33-2.63,33.3,33.3,0,0,1,2.26-2.63,11.85,11.85,0,0,1,2.51-2,6,6,0,0,1,3.11-.8,3.28,3.28,0,0,1,1.6.4,4.94,4.94,0,0,1,1.32,1,7,7,0,0,1,1,1.5,13.51,13.51,0,0,1,.73,1.71q-2.33,4.66-4.81,10T162.43,84a94.82,94.82,0,0,0-3.36,11.35,50.34,50.34,0,0,0-1.31,11.27v6.19l1.56,3.1a3.6,3.6,0,0,1-.27,1.46,2.66,2.66,0,0,1-.7,1,2.72,2.72,0,0,1-1,.53,4,4,0,0,1-1.13.17h-1.56a19,19,0,0,1-.5-1.9q-.3-1.33-.65-3t-.7-3.59q-.35-1.88-.62-3.59t-.45-3A15.64,15.64,0,0,1,151.57,101.91Z"/><path class="cls-2" d="M240.63,82.84a11.89,11.89,0,0,0-2.51,1.35,25.56,25.56,0,0,0-2.5,2q-1.22,1.08-2.36,2.28t-2.11,2.28l-1.73,2q-.77.88-1.23,1.35h-1.86a7.28,7.28,0,0,1-1.53-.13,1.72,1.72,0,0,1-1.43-1.43,7.26,7.26,0,0,1-.13-1.53V89Q225,84.87,227,80.16t4.23-9.62q2.2-4.91,4.46-9.82t4.46-9.47q2.2-4.56,4.23-8.57t3.73-7.14a8.76,8.76,0,0,1,.77-1.75,59.19,59.19,0,0,1,8.7-11.87c.7-.76,9.46-9.32,9.8-9.94.07.38-.62,2.22-.66,2.87s-.74,2.2-.88,3-6.11,5.6-10.7,13.52c-.37.65-.53,1.25-.8,1.65L235.67,71.59v1.26a15.8,15.8,0,0,0,5.09-.83A33.86,33.86,0,0,0,245.59,70q2.36-1.23,4.68-2.7t4.68-2.7a33.94,33.94,0,0,1,4.83-2.06,15.8,15.8,0,0,1,5.09-.83,7.28,7.28,0,0,1-.72,3.38,7.76,7.76,0,0,1-1.9,2.38,11.83,11.83,0,0,1-2.7,1.7q-1.51.7-3.08,1.28l-3.08,1.15a13.89,13.89,0,0,0-2.7,1.33,6.72,6.72,0,0,0-1.9,1.8,4.39,4.39,0,0,0-.72,2.56v.6a51.22,51.22,0,0,0,7.06,3.34q4,1.58,8.59,3t9.4,2.71q4.84,1.28,9.52,2.43t8.94,2.16q4.26,1,7.64,1.91t5.62,1.66a8.31,8.31,0,0,1,2.91,1.43L309,97.75h-.67a61.6,61.6,0,0,1-11.53-1.1q-5.77-1.1-11.52-2.76t-11.42-3.59q-5.67-1.93-11.22-3.59t-10.9-2.76a52.13,52.13,0,0,0-10.48-1.1Zm-2.33-9.65a3.87,3.87,0,0,0-2.15.53,2.06,2.06,0,0,0-.82,1.86v1.23a11,11,0,0,1,1-.92,12.86,12.86,0,0,0,1-.9,6.56,6.56,0,0,0,.73-.9A1.63,1.63,0,0,0,238.3,73.19Z"/><path class="cls-3" d="M286.11,72.12a28.59,28.59,0,0,0,3.66-2.5,14.42,14.42,0,0,0,2.7-2.8,5.14,5.14,0,0,0,1-3,17.76,17.76,0,0,0-3.44.38,27.82,27.82,0,0,0-3.88,1.08A25.66,25.66,0,0,0,282.36,67,19,19,0,0,0,279,69.31a11.11,11.11,0,0,0-2.35,2.81,6.43,6.43,0,0,0-.88,3.26v1.56l2.65-1.1q1.68-.7,3.66-1.63T286.11,72.12Z"/><path class="cls-3" d="M203.45,80.94a10.13,10.13,0,0,0-1.8-.05,17.8,17.8,0,0,0-2.21.25,22.25,22.25,0,0,0-2.26.52,13.43,13.43,0,0,0-1.91.68l1.93.33q1,.17,1.76.25a15.54,15.54,0,0,0,1.61.08,12.37,12.37,0,0,0,1.75-.13q.93-.13,2.23-.43a1.17,1.17,0,0,0-.25-.95A1.24,1.24,0,0,0,203.45,80.94Z"/><path class="cls-2" d="M254.56,86.37l-.57.31a5.24,5.24,0,0,0-1.71,1.45,1.9,1.9,0,0,0-.33,1.13,2.79,2.79,0,0,0,.3,1.26,2.83,2.83,0,0,0,.9,1,2.44,2.44,0,0,0,1.46.43,14.16,14.16,0,0,0,3-.32,28.05,28.05,0,0,0,2.88-.78q1.41-.47,2.8-1c.55-.22,1.11-.43,1.67-.63l-2.81-.86C259.59,87.63,257.06,87,254.56,86.37Z"/><path class="cls-2" d="M327,82q-4.71.42-9.37.92t-9.37.92q-4.71.42-9.6.42-.77,0-2.18-.13t-3.1-.33l-3.46-.43-3.26-.43-2.51-.33q-1-.13-1.23-.13l-3.1-1.56A11.63,11.63,0,0,1,283,78.11a45.21,45.21,0,0,1,4.26-2.35l4.64-2.26A29.17,29.17,0,0,0,296.13,71a12.93,12.93,0,0,0,3.11-3.11,7,7,0,0,0,1.2-4.06q0-.3.08-1.08a9,9,0,0,0,0-1.65,4.79,4.79,0,0,0-.42-1.63,2,2,0,0,0-1.21-1.07l-1.06,0-1.65,0-1.65,0a5.15,5.15,0,0,0-1,.07q-2.76.67-5.28,1.48a33.47,33.47,0,0,0-4.81,2,27.22,27.22,0,0,0-4.39,2.8,24.28,24.28,0,0,0-4,4,37.46,37.46,0,0,0-3.63,5.54,56.66,56.66,0,0,0-3.3,7.41,13.17,13.17,0,0,1-2.1.82l-1.08.34c2.8.87,5.7,1.7,8.64,2.48,3.2.85,6.39,1.66,9.49,2.42l6.41,1.56c1.32.08,2.66.14,4,.14q5.19,0,11.25-.48t12.51-1.46q6.46-1,13.15-2.43t13.15-3.38h-7Q331.72,81.57,327,82Zm-51.2-5V75.38a6.43,6.43,0,0,1,.88-3.26A11.11,11.11,0,0,1,279,69.31,19,19,0,0,1,282.36,67a25.66,25.66,0,0,1,3.83-1.73,27.82,27.82,0,0,1,3.88-1.08,17.76,17.76,0,0,1,3.44-.38,5.14,5.14,0,0,1-1,3,14.42,14.42,0,0,1-2.7,2.8,28.59,28.59,0,0,1-3.66,2.5q-2,1.17-4,2.1t-3.66,1.63Z"/><path class="cls-2" d="M312.85,79.88l.33-1.31a8.34,8.34,0,0,1,.42-1.23,5.44,5.44,0,0,1,.62-1.08,3.49,3.49,0,0,1,.93-.87L319,56.58a.85.85,0,0,1,.42-.67,1.63,1.63,0,0,1,.75-.22,3.69,3.69,0,0,1,.78.05,1.72,1.72,0,0,1,.55.17,2.92,2.92,0,0,1,1.78.95,3.35,3.35,0,0,1,.72,1.7,7.54,7.54,0,0,1-.05,2.16q-.18,1.18-.48,2.35t-.63,2.21a14.8,14.8,0,0,0-.47,1.78,6.59,6.59,0,0,0,2.85-.18,21.72,21.72,0,0,0,3.51-1.25,38.77,38.77,0,0,0,3.79-2q1.93-1.13,3.66-2.3t3.13-2.26q1.4-1.1,2.2-1.86,4.79-1.9,9-3.43t8-2.78q3.78-1.25,7.31-2.23t7-1.8q3.48-.81,7-1.48t7.44-1.26q3.88-.6,8.19-1.15t9.3-1.12l1.23.57q-2.06.1-5.57.6t-8,1.38q-4.53.88-9.82,2.15t-10.92,2.9Q366,51.22,360.29,53.2t-11,4.29q-5.34,2.31-10.1,4.94A61.12,61.12,0,0,0,330.65,68a34.66,34.66,0,0,0-6.17,6.21A16.92,16.92,0,0,0,321.3,81a3.65,3.65,0,0,0,.12,1.48q.22.82.5,1.61t.5,1.5a1.87,1.87,0,0,1,.08,1.1A5.34,5.34,0,0,1,320.92,90a3.84,3.84,0,0,1-3.44.58,5.76,5.76,0,0,1-3.1-1.53,6.31,6.31,0,0,1-1.55-2.66,9.76,9.76,0,0,1-.37-3.25A23.45,23.45,0,0,1,312.85,79.88Z"/><path class="cls-1" d="M267.49,10.87c.89,1.27.22-1.11,0,0,0,0-17.31,14.78-21.69,23.08-3.22,6.09-12.86,8.77-20,5.76a32.15,32.15,0,0,1-7.28-4.51c-8.64-6.79-17.78-7.42-27.47-2.53-2.23,1.13-4.52,2.14-6.88,3.26-1-1.63.22-2.35.92-3.16,9.21-10.61,20.38-16.62,34.91-15.3,9.08.83,30.18,2.17,38-2.89C261.37,12.37,264.75,11.65,267.49,10.87Z"/><path class="cls-2" d="M147.36,24.48c-2,5.78-4.36,11.18-2.45,18.49-5.4-3.42-9.64-.78-14.61-.18,4.06-4.47,5.34-8.7.4-14.57C138.41,32,143.05,29.06,147.36,24.48Z"/><path class="cls-2" d="M66.15,54.87C67.33,47.79,69,41.1,65.22,33c7,2.91,11.48-1,17.19-2.62-3.84,5.95-4.48,11.1,2.53,16.93C75.11,44.49,70.26,48.74,66.15,54.87Z"/><path class="cls-2" d="M188.52,21.82c-3.65-1.64-6.5-.91-10.08.57,1.53-3.45,2.36-6.23,0-10.68,4.61,3.33,7.18.86,10.69-1.14C187.61,14.73,186,17.75,188.52,21.82Z"/><path class="cls-2" d="M100.92,16.18c4.36,2.52,6.59.72,10.18-1.5-1.76,4-2.86,6.87-1.65,10.14a14.35,14.35,0,0,0-8.62,1.33C101.68,22.87,103.18,20.36,100.92,16.18Z"/><path class="cls-2" d="M222.19,81.79q-2.7-.15-6.82-.32a1,1,0,0,1-.82-.52,1.41,1.41,0,0,1-.25-1q-.27-3.73-.62-6.82a35.22,35.22,0,0,0-1-5.57,18.22,18.22,0,0,0-1.86-4.43,12.23,12.23,0,0,0-3-3.39,16.69,16.69,0,0,0-4.56-2.43,35.32,35.32,0,0,0-6.42-1.58,19.11,19.11,0,0,0-4-.2,29.28,29.28,0,0,0-4.49.57,26.78,26.78,0,0,0-4.53,1.35,19.24,19.24,0,0,0-4,2.16,13,13,0,0,0-3,3,8.68,8.68,0,0,0-1.56,3.79q-.13.77-.33,1.68a6.65,6.65,0,0,0-.15,1.8,3.51,3.51,0,0,0,.52,1.65,3.06,3.06,0,0,0,1.63,1.2,6.34,6.34,0,0,0,1.88-.93,5.06,5.06,0,0,0,1.31-1.4,4.45,4.45,0,0,0,.63-1.78,4.71,4.71,0,0,0-.2-2l3-2.45q1.28-1,2.35-1.78a11.48,11.48,0,0,1,2.06-1.15,8.38,8.38,0,0,1,2.16-.57,13.09,13.09,0,0,1,2.58-.05q1.41.1,3.38.4,1.13.2,2.53.55a21.84,21.84,0,0,1,2.78.9,18.31,18.31,0,0,1,2.68,1.33,9.47,9.47,0,0,1,2.21,1.81,7.08,7.08,0,0,1,1.38,2.35,5.89,5.89,0,0,1,.2,2.95q-.13.83-1.56,1.75a28.07,28.07,0,0,1-3.58,1.88q-2.15,1-4.71,2t-4.94,2q-2.38,1-4.28,1.93a9.56,9.56,0,0,0-2.7,1.81l-.33,2a5.36,5.36,0,0,0,.08,2.46,3.56,3.56,0,0,0,1,1.6,4.63,4.63,0,0,0,1.76.95,18,18,0,0,0,2.25.52,7.92,7.92,0,0,0,1.73,0q1.06-.08,2.33-.23l2.61-.33q1.35-.18,2.55-.3a16.54,16.54,0,0,1,2.15-.08,3.59,3.59,0,0,1,1.41.27,10.58,10.58,0,0,1,2.33,1.58,2,2,0,0,1,.67,1.1.85.85,0,0,1-.28.73l-.5.47q-.18.18,0,.32a3.3,3.3,0,0,0,1.11.3l5.13.4q2.7-1.9,5-3.23a41.53,41.53,0,0,1,4.48-2.26l.18-.07h0c.84-2,1.75-4.18,2.72-6.44Zm-22.48,4.9a11,11,0,0,0-5.64-4.3c2.8-1.24,5.41-1.7,7.16-5.2A4.59,4.59,0,0,0,203.75,81l.16.08a23.07,23.07,0,0,0,3.92,1.19C204.06,83.37,201.38,84.27,199.71,86.69Z"/><path class="cls-1" d="M24.18,112.45h2.21a.47.47,0,0,1,.54.51l.2,5.51a.52.52,0,0,1-.1.39.51.51,0,0,1-.39.12H23.92a.51.51,0,0,1-.39-.12.52.52,0,0,1-.1-.39l.21-5.51a.58.58,0,0,1,.14-.39A.54.54,0,0,1,24.18,112.45Zm-.2-3.74H26.6a.44.44,0,0,1,.51.51v1.87a.44.44,0,0,1-.51.51H24a.44.44,0,0,1-.51-.51v-1.87a.44.44,0,0,1,.51-.51Zm1.24,1.14v.61h.14v-.61Zm.14,7.85v-4h-.14v4Z"/><path class="cls-1" d="M34.59,119H29.79a.44.44,0,0,1-.51-.51v-9.25a.44.44,0,0,1,.51-.51h4.81a4.1,4.1,0,0,1,2.65.71,2.69,2.69,0,0,1,.86,2.2v4.45a2.68,2.68,0,0,1-.86,2.2A4.1,4.1,0,0,1,34.59,119Zm-3.77-1.28h3.45a3.89,3.89,0,0,0,1.18-.15,1.65,1.65,0,0,0,.7-.41,1.27,1.27,0,0,0,.32-.61,3.58,3.58,0,0,0,.08-.77V112a3.39,3.39,0,0,0-.09-.78,1.38,1.38,0,0,0-.33-.63,1.67,1.67,0,0,0-.69-.42,3.65,3.65,0,0,0-1.18-.16H30.83Zm3.45-7.56a3.48,3.48,0,0,1,1.09.14,1.56,1.56,0,0,1,.65.38,1.3,1.3,0,0,1,.31.58,3,3,0,0,1,.09.73v3.78a3.16,3.16,0,0,1-.08.72A1.19,1.19,0,0,1,36,117a1.54,1.54,0,0,1-.65.37,3.69,3.69,0,0,1-1.11.14H31v-7.42Zm-1.77,1.3v4.85h1.7a.67.67,0,0,0,.51-.17.74.74,0,0,0,.16-.53v-3.47a.72.72,0,0,0-.16-.52.69.69,0,0,0-.51-.16Z"/><path class="cls-1" d="M47,119H40.43a.44.44,0,0,1-.51-.51v-9.25a.44.44,0,0,1,.51-.51H47a.44.44,0,0,1,.51.51v1.67a.44.44,0,0,1-.51.51H43.11v1.1h2.78a.44.44,0,0,1,.51.51v1.53a.44.44,0,0,1-.51.51H43.11v1.23H47a.44.44,0,0,1,.51.51v1.67A.44.44,0,0,1,47,119Zm-.77-1.43H41.61v-3.7h3.51v-.14H41.61v-3.58h4.67V110H41.47v7.7h4.81Z"/><path class="cls-1" d="M57.17,116.29a3.63,3.63,0,0,1-.19,1.19,2,2,0,0,1-.65.91,3.36,3.36,0,0,1-1.28.59,8.33,8.33,0,0,1-2.07.21,8.16,8.16,0,0,1-2-.21,3.36,3.36,0,0,1-1.27-.59,2,2,0,0,1-.64-.91,3.75,3.75,0,0,1-.18-1.19V114a.44.44,0,0,1,.51-.51h2.07a.44.44,0,0,1,.51.51v1.74a.68.68,0,0,0,.18.48,1.21,1.21,0,0,0,.83.19q.61,0,.78-.19a.71.71,0,0,0,.16-.48v-6.49a.44.44,0,0,1,.51-.51h2.24a.44.44,0,0,1,.51.51ZM55.45,110v5.95a1.71,1.71,0,0,1-.51,1.29,2.82,2.82,0,0,1-1.93.49,3.06,3.06,0,0,1-2-.48,1.67,1.67,0,0,1-.54-1.3v-1.13h-.14v1.13a2.44,2.44,0,0,0,.12.79,1.35,1.35,0,0,0,.42.61,2.16,2.16,0,0,0,.82.39,5.08,5.08,0,0,0,1.32.14,2.89,2.89,0,0,0,2-.54,1.89,1.89,0,0,0,.54-1.38V110Z"/><path class="cls-1" d="M62,118.47a.44.44,0,0,1-.51.51h-2.1a.44.44,0,0,1-.51-.51V114.7a4.22,4.22,0,0,1,.14-1,10.93,10.93,0,0,1,.42-1.3l1.24-3.24a.66.66,0,0,1,.26-.36.85.85,0,0,1,.46-.11h3.84a.82.82,0,0,1,.45.11.67.67,0,0,1,.26.36l1.24,3.24a10.84,10.84,0,0,1,.42,1.3,4.23,4.23,0,0,1,.14,1v3.77a.44.44,0,0,1-.51.51H65.06a.62.62,0,0,1-.42-.12.5.5,0,0,1-.14-.39v-2H62Zm4.09-.77h.14v-3a3.9,3.9,0,0,0-.06-.73,4.27,4.27,0,0,0-.18-.65L65,111a3.46,3.46,0,0,0-.36-.69A.76.76,0,0,0,64,110h-1.4a.79.79,0,0,0-.68.27,2.91,2.91,0,0,0-.36.67l-.91,2.34a4.16,4.16,0,0,0-.18.65,3.9,3.9,0,0,0-.06.73v3h.14v-2.45h5.56Zm-5.56-3a3.7,3.7,0,0,1,.06-.71,4.43,4.43,0,0,1,.16-.61l.91-2.34a3.13,3.13,0,0,1,.31-.61.68.68,0,0,1,.6-.25H64a.64.64,0,0,1,.57.25,3.6,3.6,0,0,1,.33.62l1,2.33a4.5,4.5,0,0,1,.16.61,3.74,3.74,0,0,1,.06.71v.44H60.5Zm2.28-3-.67,2.17h2.24l-.67-2.17a.54.54,0,0,0-.12-.19.22.22,0,0,0-.15-.06h-.36a.22.22,0,0,0-.15.06A.53.53,0,0,0,62.79,111.71Z"/><path class="cls-1" d="M77.94,119H73.13a.44.44,0,0,1-.51-.51v-9.25a.44.44,0,0,1,.51-.51h4.81a4.1,4.1,0,0,1,2.65.71,2.69,2.69,0,0,1,.86,2.2v4.45a2.68,2.68,0,0,1-.86,2.2A4.1,4.1,0,0,1,77.94,119Zm-3.77-1.28h3.45a3.89,3.89,0,0,0,1.18-.15,1.65,1.65,0,0,0,.7-.41,1.27,1.27,0,0,0,.32-.61,3.58,3.58,0,0,0,.08-.77V112a3.39,3.39,0,0,0-.09-.78,1.38,1.38,0,0,0-.33-.63,1.67,1.67,0,0,0-.69-.42,3.65,3.65,0,0,0-1.18-.16H74.17Zm3.45-7.56a3.48,3.48,0,0,1,1.09.14,1.56,1.56,0,0,1,.65.38,1.3,1.3,0,0,1,.31.58,3,3,0,0,1,.09.73v3.78a3.16,3.16,0,0,1-.08.72,1.19,1.19,0,0,1-.31.57,1.54,1.54,0,0,1-.65.37,3.69,3.69,0,0,1-1.11.14H74.31v-7.42Zm-1.77,1.3v4.85h1.7a.67.67,0,0,0,.51-.17.74.74,0,0,0,.16-.53v-3.47a.72.72,0,0,0-.16-.52.69.69,0,0,0-.51-.16Z"/><path class="cls-1" d="M90.39,119H83.77a.44.44,0,0,1-.51-.51v-9.25a.44.44,0,0,1,.51-.51h6.62a.44.44,0,0,1,.51.51v1.67a.44.44,0,0,1-.51.51H86.46v1.1h2.78a.44.44,0,0,1,.51.51v1.53a.44.44,0,0,1-.51.51H86.46v1.23h3.94a.44.44,0,0,1,.51.51v1.67a.44.44,0,0,1-.51.51Zm-.77-1.43H85v-3.7h3.51v-.14H85v-3.58h4.67V110H84.82v7.7h4.81Z"/><path class="cls-1" d="M100.57,119H96.06a.44.44,0,0,1-.51-.51V116.8a.44.44,0,0,1,.51-.51H99.9a.33.33,0,0,0,.28-.12.47.47,0,0,0,.09-.29.56.56,0,0,0-.09-.36.38.38,0,0,0-.28-.13l-2.14-.3a3.1,3.1,0,0,1-1.6-.66,2.13,2.13,0,0,1-.61-1.71v-1.5a2.28,2.28,0,0,1,.78-1.86,3.3,3.3,0,0,1,2.17-.65h4a.44.44,0,0,1,.51.51v1.7a.44.44,0,0,1-.51.51H99.17a.35.35,0,0,0-.29.12.47.47,0,0,0-.1.31.49.49,0,0,0,.1.31.38.38,0,0,0,.29.14l2.13.29a3.16,3.16,0,0,1,1.61.66,2.12,2.12,0,0,1,.61,1.71v1.5a2.27,2.27,0,0,1-.79,1.86A3.3,3.3,0,0,1,100.57,119Zm1.16-9H98.56a1.51,1.51,0,0,0-1.06.36,1.21,1.21,0,0,0-.4.93v1.17a1.09,1.09,0,0,0,.24.81,1.19,1.19,0,0,0,.61.29l3,.61a1.19,1.19,0,0,1,.63.34,1.35,1.35,0,0,1,.24.92v.83a1.22,1.22,0,0,1-.39.93,1.48,1.48,0,0,1-1,.36H96.83v.14h3.55a1.61,1.61,0,0,0,1.16-.41,1.37,1.37,0,0,0,.43-1v-.83a1.47,1.47,0,0,0-.28-1A1.32,1.32,0,0,0,101,114l-3-.61a1,1,0,0,1-.53-.26,1,1,0,0,1-.2-.7v-1.17a1.08,1.08,0,0,1,.36-.83,1.36,1.36,0,0,1,1-.33h3.17Z"/><path class="cls-1" d="M113.78,116.29a3.5,3.5,0,0,1-.19,1.19,2,2,0,0,1-.69.91,3.67,3.67,0,0,1-1.36.59,9.32,9.32,0,0,1-2.19.21,9.42,9.42,0,0,1-2.2-.21,3.67,3.67,0,0,1-1.36-.59,2,2,0,0,1-.69-.91,3.5,3.5,0,0,1-.19-1.19v-4.87a3.5,3.5,0,0,1,.19-1.19,2,2,0,0,1,.69-.92,3.59,3.59,0,0,1,1.36-.6,9.42,9.42,0,0,1,2.2-.21,9.32,9.32,0,0,1,2.19.21,3.59,3.59,0,0,1,1.36.6,2,2,0,0,1,.69.92,3.5,3.5,0,0,1,.19,1.19Zm-1.56-.33v-4.21a1.76,1.76,0,0,0-.61-1.39,3.58,3.58,0,0,0-2.28-.54,3.51,3.51,0,0,0-2.27.54,1.78,1.78,0,0,0-.6,1.39V116a1.78,1.78,0,0,0,.6,1.39,3.51,3.51,0,0,0,2.27.54,3.58,3.58,0,0,0,2.28-.54A1.76,1.76,0,0,0,112.22,116Zm-5.62,0v-4.21a1.62,1.62,0,0,1,.57-1.29,3.41,3.41,0,0,1,2.15-.49,3.48,3.48,0,0,1,2.17.49,1.6,1.6,0,0,1,.58,1.29V116a1.61,1.61,0,0,1-.58,1.29,3.49,3.49,0,0,1-2.17.49,3.42,3.42,0,0,1-2.15-.49A1.62,1.62,0,0,1,106.6,116Zm1.56-.19a.62.62,0,0,0,.21.48,2.61,2.61,0,0,0,2,0,.61.61,0,0,0,.21-.48v-3.84a.6.6,0,0,0-.21-.46,2.61,2.61,0,0,0-2,0,.6.6,0,0,0-.21.46Z"/><path class="cls-1" d="M118.24,119H116.1a.44.44,0,0,1-.51-.51v-9.25a.44.44,0,0,1,.51-.51h1.48a1.15,1.15,0,0,1,.46.08,1.12,1.12,0,0,1,.38.3l2.77,3.17v-3a.44.44,0,0,1,.51-.51h2.14a.44.44,0,0,1,.51.51v9.25a.44.44,0,0,1-.51.51h-2.14a.44.44,0,0,1-.51-.51v-1.75l-2.44-3v4.71a.44.44,0,0,1-.51.51Zm1.71-10.9-.4-.06-.67-.08a2.86,2.86,0,0,0-.48,0L118,108l-.49.14a.46.46,0,0,1-.38,0,.4.4,0,0,1-.13-.36v-1.44a.46.46,0,0,1,.14-.38,1.6,1.6,0,0,1,.38-.21l.57-.15a2.1,2.1,0,0,1,.45,0,3.85,3.85,0,0,1,.5,0l.71.09.24,0,.31,0,.75.1a2.9,2.9,0,0,0,.49,0,1.92,1.92,0,0,0,.41-.07l.51-.16a.47.47,0,0,1,.39,0,.41.41,0,0,1,.13.36v1.44a.46.46,0,0,1-.14.38,1.6,1.6,0,0,1-.38.21l-.57.15a2.14,2.14,0,0,1-.46,0,3.91,3.91,0,0,1-.51,0l-.71-.09Zm-2.48,2-.11-.1a.18.18,0,0,0-.1,0,.19.19,0,0,0-.11,0,.15.15,0,0,0-.06.13v7.55h.14v-7.55h.06l0,0,5.39,6v1.47h.14V110h-.14v6Zm4.18-3.12a3.07,3.07,0,0,1-.6,0l-.86-.11-.23,0-.4-.06-.78-.08a2.84,2.84,0,0,0-.54,0v.16a2.25,2.25,0,0,1,.52,0q.29,0,.76.09l.4.06.23,0q.54.09.87.11a3.22,3.22,0,0,0,.61,0Z"/><path class="cls-1" d="M129.24,118.47a.44.44,0,0,1-.51.51h-2.1a.44.44,0,0,1-.51-.51V114.7a4.22,4.22,0,0,1,.14-1,10.93,10.93,0,0,1,.42-1.3l1.24-3.24a.66.66,0,0,1,.26-.36.85.85,0,0,1,.46-.11h3.84a.82.82,0,0,1,.45.11.67.67,0,0,1,.26.36l1.24,3.24a10.84,10.84,0,0,1,.42,1.3,4.23,4.23,0,0,1,.14,1v3.77a.44.44,0,0,1-.51.51h-2.15a.62.62,0,0,1-.42-.12.5.5,0,0,1-.14-.39v-2h-2.53Zm4.09-.77h.14v-3a3.9,3.9,0,0,0-.06-.73,4.27,4.27,0,0,0-.18-.65l-1-2.33a3.46,3.46,0,0,0-.36-.69.76.76,0,0,0-.66-.27h-1.4a.79.79,0,0,0-.68.27,2.91,2.91,0,0,0-.36.67l-.91,2.34a4.16,4.16,0,0,0-.18.65,3.9,3.9,0,0,0-.06.73v3h.14v-2.45h5.56Zm-5.56-3a3.7,3.7,0,0,1,.06-.71,4.43,4.43,0,0,1,.16-.61l.91-2.34a3.13,3.13,0,0,1,.31-.61.68.68,0,0,1,.6-.25h1.4a.64.64,0,0,1,.57.25,3.6,3.6,0,0,1,.33.62l1,2.33a4.5,4.5,0,0,1,.16.61,3.74,3.74,0,0,1,.06.71v.44h-5.56Zm2.28-3-.67,2.17h2.24l-.67-2.17a.54.54,0,0,0-.12-.19.22.22,0,0,0-.15-.06h-.36a.22.22,0,0,0-.15.06A.53.53,0,0,0,130.06,111.71Z"/><path class="cls-1" d="M139.46,119h-2.2a.44.44,0,0,1-.51-.51v-9.25a.44.44,0,0,1,.51-.51H142a2.92,2.92,0,0,1,2.2.66,2.45,2.45,0,0,1,.61,1.72v.66a2.6,2.6,0,0,1-.18,1,1.11,1.11,0,0,1-.62.61,1.88,1.88,0,0,1,1.25.63,2.1,2.1,0,0,1,.48,1.44v3a.44.44,0,0,1-.51.51H143a.44.44,0,0,1-.51-.51v-2.18a.73.73,0,0,0-.12-.46.52.52,0,0,0-.42-.15h-2v2.8a.44.44,0,0,1-.51.51Zm-1-1.28v-3.31h4a1.74,1.74,0,0,1,1.2.35,1.34,1.34,0,0,1,.39,1v1.91h.14v-1.91a1.46,1.46,0,0,0-.43-1.13,1.87,1.87,0,0,0-1.3-.39h-.16a1,1,0,0,0,.69-.58,2.89,2.89,0,0,0,.17-1.08v-1a1.72,1.72,0,0,0-.4-1.16,1.53,1.53,0,0,0-1.23-.46h-3.25v7.7Zm3.11-7.56a1.42,1.42,0,0,1,1.12.41,1.56,1.56,0,0,1,.36,1.07v1a2.1,2.1,0,0,1-.3,1.21,1.36,1.36,0,0,1-1.18.43h-3.11v-4.12ZM140,111.28v1.83H141a.56.56,0,0,0,.5-.19.84.84,0,0,0,.13-.48v-.49a.84.84,0,0,0-.13-.48.56.56,0,0,0-.5-.19Z"/><path class="cls-2" d="M172.55,119h-2.21a.44.44,0,0,1-.51-.51v-9.25a.44.44,0,0,1,.51-.51h2.21a.44.44,0,0,1,.51.51v3.1h2.38v-3.1a.44.44,0,0,1,.51-.51h2.21a.44.44,0,0,1,.51.51v9.25a.44.44,0,0,1-.51.51H176a.44.44,0,0,1-.51-.51V115.3h-2.38v3.17a.44.44,0,0,1-.51.51Zm-1.18-1.28h.14v-3.78H177v3.78h.14V110H177v3.78H171.5V110h-.14Z"/><path class="cls-2" d="M183.56,118.47a.44.44,0,0,1-.51.51h-2.1a.44.44,0,0,1-.51-.51V114.7a4.22,4.22,0,0,1,.14-1,10.93,10.93,0,0,1,.42-1.3l1.24-3.24a.66.66,0,0,1,.26-.36.85.85,0,0,1,.46-.11h3.84a.82.82,0,0,1,.45.11.67.67,0,0,1,.26.36l1.24,3.24a10.84,10.84,0,0,1,.42,1.3,4.23,4.23,0,0,1,.14,1v3.77a.44.44,0,0,1-.51.51h-2.15a.62.62,0,0,1-.42-.12.5.5,0,0,1-.14-.39v-2h-2.53Zm4.09-.77h.14v-3a3.9,3.9,0,0,0-.06-.73,4.27,4.27,0,0,0-.18-.65l-1-2.33a3.46,3.46,0,0,0-.36-.69.76.76,0,0,0-.66-.27h-1.4a.79.79,0,0,0-.68.27,2.91,2.91,0,0,0-.36.67l-.91,2.34a4.16,4.16,0,0,0-.18.65,3.9,3.9,0,0,0-.06.73v3h.14v-2.45h5.56Zm-5.56-3a3.7,3.7,0,0,1,.06-.71,4.43,4.43,0,0,1,.16-.61l.91-2.34a3.13,3.13,0,0,1,.31-.61.68.68,0,0,1,.6-.25h1.4a.64.64,0,0,1,.57.25,3.6,3.6,0,0,1,.33.62l1,2.33a4.5,4.5,0,0,1,.16.61,3.74,3.74,0,0,1,.06.71v.44h-5.56Zm2.28-3-.67,2.17h2.24l-.67-2.17a.54.54,0,0,0-.12-.19.22.22,0,0,0-.15-.06h-.36a.22.22,0,0,0-.15.06A.53.53,0,0,0,184.37,111.71Z"/><path class="cls-2" d="M198.33,119h-7.08a.44.44,0,0,1-.51-.51v-1.91a1.25,1.25,0,0,1,.09-.48,1.39,1.39,0,0,1,.27-.41l3.47-4.21h-3.05A.44.44,0,0,1,191,111v-1.73a.44.44,0,0,1,.51-.51h6.56a.44.44,0,0,1,.51.51v2.13a1.28,1.28,0,0,1-.09.49,1.38,1.38,0,0,1-.27.41l-3.31,4h3.41a.44.44,0,0,1,.51.51v1.7a.44.44,0,0,1-.51.51Zm-1.5-7.76A2.44,2.44,0,0,0,197,111a.54.54,0,0,0,.07-.28v-.23a.51.51,0,0,0-.11-.36.44.44,0,0,0-.34-.11h-4.35v.14h4.35a.35.35,0,0,1,.21.06.3.3,0,0,1,.09.26v.2a.45.45,0,0,1-.05.23,1.94,1.94,0,0,1-.15.21l-4.18,5.37a2.43,2.43,0,0,0-.17.25.54.54,0,0,0-.07.28v.23a.51.51,0,0,0,.11.36.44.44,0,0,0,.34.11h4.81v-.14h-4.81a.35.35,0,0,1-.21-.06.3.3,0,0,1-.09-.26V117a.44.44,0,0,1,0-.23,1.89,1.89,0,0,1,.15-.21Z"/><path class="cls-2" d="M208.26,119H201a.44.44,0,0,1-.51-.51v-9.25a.44.44,0,0,1,.51-.51h2.21a.44.44,0,0,1,.51.51v7.06h2V114a.44.44,0,0,1,.51-.51h2.07a.44.44,0,0,1,.51.51v4.49a.44.44,0,0,1-.51.51ZM202,117.7h5.25v-3h-.14v2.81h-5V110H202Z"/><path class="cls-2" d="M219.1,116.29a3.5,3.5,0,0,1-.19,1.19,2,2,0,0,1-.69.91,3.67,3.67,0,0,1-1.36.59,9.32,9.32,0,0,1-2.19.21,9.42,9.42,0,0,1-2.2-.21,3.67,3.67,0,0,1-1.36-.59,2,2,0,0,1-.69-.91,3.5,3.5,0,0,1-.19-1.19v-4.87a3.5,3.5,0,0,1,.19-1.19,2,2,0,0,1,.69-.92,3.59,3.59,0,0,1,1.36-.6,9.42,9.42,0,0,1,2.2-.21,9.32,9.32,0,0,1,2.19.21,3.59,3.59,0,0,1,1.36.6,2,2,0,0,1,.69.92,3.5,3.5,0,0,1,.19,1.19Zm-1.56-.33v-4.21a1.76,1.76,0,0,0-.61-1.39,3.58,3.58,0,0,0-2.28-.54,3.51,3.51,0,0,0-2.27.54,1.78,1.78,0,0,0-.6,1.39V116a1.78,1.78,0,0,0,.6,1.39,3.51,3.51,0,0,0,2.27.54,3.58,3.58,0,0,0,2.28-.54A1.76,1.76,0,0,0,217.54,116Zm-5.62,0v-4.21a1.62,1.62,0,0,1,.57-1.29,3.41,3.41,0,0,1,2.15-.49,3.48,3.48,0,0,1,2.17.49,1.6,1.6,0,0,1,.58,1.29V116a1.61,1.61,0,0,1-.58,1.29,3.49,3.49,0,0,1-2.17.49,3.42,3.42,0,0,1-2.15-.49A1.62,1.62,0,0,1,211.92,116Zm1.56-.19a.62.62,0,0,0,.21.48,2.61,2.61,0,0,0,2,0,.61.61,0,0,0,.21-.48v-3.84a.6.6,0,0,0-.21-.46,2.61,2.61,0,0,0-2,0,.6.6,0,0,0-.21.46Z"/><path class="cls-2" d="M226.83,119h-2.2a.44.44,0,0,1-.51-.51v-9.25a.44.44,0,0,1,.51-.51h4.75a2.92,2.92,0,0,1,2.2.66,2.45,2.45,0,0,1,.61,1.72v.66a2.6,2.6,0,0,1-.18,1,1.11,1.11,0,0,1-.62.61,1.88,1.88,0,0,1,1.25.63,2.1,2.1,0,0,1,.48,1.44v3a.44.44,0,0,1-.51.51H230.4a.44.44,0,0,1-.51-.51v-2.18a.73.73,0,0,0-.12-.46.52.52,0,0,0-.42-.15h-2v2.8a.44.44,0,0,1-.51.51Zm-1-1.28v-3.31h4a1.74,1.74,0,0,1,1.2.35,1.34,1.34,0,0,1,.39,1v1.91h.14v-1.91a1.46,1.46,0,0,0-.43-1.13,1.87,1.87,0,0,0-1.3-.39h-.16a1,1,0,0,0,.69-.58,2.89,2.89,0,0,0,.17-1.08v-1a1.72,1.72,0,0,0-.4-1.16,1.53,1.53,0,0,0-1.23-.46h-3.25v7.7Zm3.11-7.56a1.42,1.42,0,0,1,1.12.41,1.56,1.56,0,0,1,.36,1.07v1a2.1,2.1,0,0,1-.3,1.21,1.36,1.36,0,0,1-1.18.43h-3.11v-4.12Zm-1.57,1.14v1.83h1.07a.56.56,0,0,0,.5-.19.84.84,0,0,0,.13-.48v-.49a.84.84,0,0,0-.13-.48.56.56,0,0,0-.5-.19Z"/><path class="cls-2" d="M241.86,119h-6.62a.44.44,0,0,1-.51-.51v-9.25a.44.44,0,0,1,.51-.51h6.62a.44.44,0,0,1,.51.51v1.67a.44.44,0,0,1-.51.51h-3.94v1.1h2.78a.44.44,0,0,1,.51.51v1.53a.44.44,0,0,1-.51.51h-2.78v1.23h3.94a.44.44,0,0,1,.51.51v1.67a.44.44,0,0,1-.51.51Zm-.77-1.43h-4.67v-3.7h3.51v-.14h-3.51v-3.58h4.67V110h-4.81v7.7h4.81Z"/><path class="cls-2" d="M247,118.47a.44.44,0,0,1-.51.51h-2.1a.44.44,0,0,1-.51-.51V114.7a4.22,4.22,0,0,1,.14-1,10.93,10.93,0,0,1,.42-1.3l1.24-3.24a.66.66,0,0,1,.26-.36.85.85,0,0,1,.46-.11h3.84a.82.82,0,0,1,.45.11.67.67,0,0,1,.26.36l1.24,3.24a10.84,10.84,0,0,1,.42,1.3,4.23,4.23,0,0,1,.14,1v3.77a.44.44,0,0,1-.51.51H250a.62.62,0,0,1-.42-.12.5.5,0,0,1-.14-.39v-2H247Zm4.09-.77h.14v-3a3.9,3.9,0,0,0-.06-.73,4.27,4.27,0,0,0-.18-.65L250,111a3.46,3.46,0,0,0-.36-.69.76.76,0,0,0-.66-.27h-1.4a.79.79,0,0,0-.68.27,2.91,2.91,0,0,0-.36.67l-.91,2.34a4.16,4.16,0,0,0-.18.65,3.9,3.9,0,0,0-.06.73v3h.14v-2.45h5.56Zm-5.56-3a3.7,3.7,0,0,1,.06-.71,4.43,4.43,0,0,1,.16-.61l.91-2.34a3.13,3.13,0,0,1,.31-.61.68.68,0,0,1,.6-.25h1.4a.64.64,0,0,1,.57.25,3.6,3.6,0,0,1,.33.62l1,2.33a4.5,4.5,0,0,1,.16.61,3.74,3.74,0,0,1,.06.71v.44h-5.56Zm2.28-3-.67,2.17h2.24l-.67-2.17a.54.54,0,0,0-.12-.19.22.22,0,0,0-.15-.06H248a.22.22,0,0,0-.15.06A.53.53,0,0,0,247.78,111.71Z"/><path class="cls-2" d="M262.24,119H255a.44.44,0,0,1-.51-.51v-9.25a.44.44,0,0,1,.51-.51h2.21a.44.44,0,0,1,.51.51v7.06h2V114a.44.44,0,0,1,.51-.51h2.07a.44.44,0,0,1,.51.51v4.49a.44.44,0,0,1-.51.51ZM256,117.7h5.25v-3h-.14v2.81h-5V110H256Z"/><path class="cls-2" d="M264.67,119a.44.44,0,0,1-.51-.51v-1.7a.44.44,0,0,1,.51-.51h1.41v-4.79h-1.41a.44.44,0,0,1-.51-.51v-1.73a.44.44,0,0,1,.51-.51h6.08a.44.44,0,0,1,.51.51V111a.44.44,0,0,1-.51.51h-1.38v4.79h1.38a.44.44,0,0,1,.51.51v1.7a.44.44,0,0,1-.51.51ZM270,117.7v-.14h-2.18v-7.42H270V110h-4.54v.14h2.21v7.42h-2.21v.14Z"/><path class="cls-2" d="M278.34,119h-4.81a.44.44,0,0,1-.51-.51v-9.25a.44.44,0,0,1,.51-.51h4.81a4.1,4.1,0,0,1,2.65.71,2.69,2.69,0,0,1,.86,2.2v4.45a2.68,2.68,0,0,1-.86,2.2A4.1,4.1,0,0,1,278.34,119Zm-3.77-1.28H278a3.89,3.89,0,0,0,1.18-.15,1.65,1.65,0,0,0,.7-.41,1.27,1.27,0,0,0,.32-.61,3.58,3.58,0,0,0,.08-.77V112a3.39,3.39,0,0,0-.09-.78,1.38,1.38,0,0,0-.33-.63,1.67,1.67,0,0,0-.69-.42A3.65,3.65,0,0,0,278,110h-3.45Zm3.45-7.56a3.48,3.48,0,0,1,1.09.14,1.56,1.56,0,0,1,.65.38,1.3,1.3,0,0,1,.31.58,3,3,0,0,1,.09.73v3.78a3.16,3.16,0,0,1-.08.72,1.19,1.19,0,0,1-.31.57,1.54,1.54,0,0,1-.65.37,3.69,3.69,0,0,1-1.11.14h-3.31v-7.42Zm-1.77,1.3v4.85H278a.67.67,0,0,0,.51-.17.74.74,0,0,0,.16-.53v-3.47a.72.72,0,0,0-.16-.52.69.69,0,0,0-.51-.16Z"/><path class="cls-2" d="M286.57,118.47a.44.44,0,0,1-.51.51H284a.44.44,0,0,1-.51-.51V114.7a4.22,4.22,0,0,1,.14-1,10.93,10.93,0,0,1,.42-1.3l1.24-3.24a.66.66,0,0,1,.26-.36.85.85,0,0,1,.46-.11h3.84a.82.82,0,0,1,.45.11.67.67,0,0,1,.26.36l1.24,3.24a10.84,10.84,0,0,1,.42,1.3,4.23,4.23,0,0,1,.14,1v3.77a.44.44,0,0,1-.51.51h-2.15a.62.62,0,0,1-.42-.12.5.5,0,0,1-.14-.39v-2h-2.53Zm4.09-.77h.14v-3a3.9,3.9,0,0,0-.06-.73,4.27,4.27,0,0,0-.18-.65l-1-2.33a3.46,3.46,0,0,0-.36-.69.76.76,0,0,0-.66-.27h-1.4a.79.79,0,0,0-.68.27,2.91,2.91,0,0,0-.36.67l-.91,2.34a4.16,4.16,0,0,0-.18.65,3.9,3.9,0,0,0-.06.73v3h.14v-2.45h5.56Zm-5.56-3a3.7,3.7,0,0,1,.06-.71,4.43,4.43,0,0,1,.16-.61l.91-2.34a3.13,3.13,0,0,1,.31-.61.68.68,0,0,1,.6-.25h1.4a.64.64,0,0,1,.57.25,3.6,3.6,0,0,1,.33.62l1,2.33a4.5,4.5,0,0,1,.16.61,3.74,3.74,0,0,1,.06.71v.44H285.1Zm2.28-3-.67,2.17H289l-.67-2.17a.54.54,0,0,0-.12-.19.22.22,0,0,0-.15-.06h-.36a.22.22,0,0,0-.15.06A.53.53,0,0,0,287.38,111.71Z"/><path class="cls-2" d="M299.4,119h-4.81a.44.44,0,0,1-.51-.51v-9.25a.44.44,0,0,1,.51-.51h4.81a4.1,4.1,0,0,1,2.65.71,2.69,2.69,0,0,1,.86,2.2v4.45a2.68,2.68,0,0,1-.86,2.2A4.1,4.1,0,0,1,299.4,119Zm-3.77-1.28h3.45a3.89,3.89,0,0,0,1.18-.15,1.65,1.65,0,0,0,.7-.41,1.27,1.27,0,0,0,.32-.61,3.58,3.58,0,0,0,.08-.77V112a3.39,3.39,0,0,0-.09-.78,1.38,1.38,0,0,0-.33-.63,1.67,1.67,0,0,0-.69-.42,3.65,3.65,0,0,0-1.18-.16h-3.45Zm3.45-7.56a3.48,3.48,0,0,1,1.09.14,1.56,1.56,0,0,1,.65.38,1.3,1.3,0,0,1,.31.58,3,3,0,0,1,.09.73v3.78a3.16,3.16,0,0,1-.08.72,1.19,1.19,0,0,1-.31.57,1.54,1.54,0,0,1-.65.37,3.69,3.69,0,0,1-1.11.14h-3.31v-7.42Zm-1.77,1.3v4.85H299a.67.67,0,0,0,.51-.17.74.74,0,0,0,.16-.53v-3.47a.72.72,0,0,0-.16-.52.69.69,0,0,0-.51-.16Z"/><path class="cls-2" d="M307.87,115.24h-2.21a.54.54,0,0,1-.39-.12.58.58,0,0,1-.14-.39l-.21-5.51a.52.52,0,0,1,.1-.39.51.51,0,0,1,.39-.12h2.73a.51.51,0,0,1,.39.12.52.52,0,0,1,.1.39l-.2,5.51a.47.47,0,0,1-.54.51Zm.21,3.74h-2.62a.44.44,0,0,1-.51-.51V116.6a.44.44,0,0,1,.51-.51h2.63a.44.44,0,0,1,.51.51v1.87a.44.44,0,0,1-.51.51Zm-1.38-9v4h.14v-4Zm.14,7.85v-.61h-.14v.61Z"/></svg>