<svg id="Capa_1" data-name="Capa 1" xmlns="http://www.w3.org/2000/svg" viewBox="0 0 171.41 189.02"><defs><style>.cls-1{fill:#fff;}</style></defs><title>logo</title><path class="cls-1" d="M117.41,60.49c6.92,4,10.47,1.14,16.18-2.39C130.8,64.38,129,69,131,74.21a22.79,22.79,0,0,0-13.69,2.12C118.62,71.11,121,67.11,117.41,60.49Z"/><path class="cls-1" d="M111.83,20.56c4.7,2.72,7.11.77,11-1.62-1.9,4.27-3.09,7.42-1.78,10.94a15.48,15.48,0,0,0-9.3,1.44C112.65,27.78,114.27,25.07,111.83,20.56Z"/><path class="cls-1" d="M153.38,95.14a7.84,7.84,0,0,0-2.09-1.67,5.21,5.21,0,0,0-2.54-.63,9.51,9.51,0,0,0-4.94,1.27,18.83,18.83,0,0,0-4,3.2,52.89,52.89,0,0,0-3.6,4.18,42.23,42.23,0,0,1-3.7,4.18,18.88,18.88,0,0,1-4.31,3.2,11.24,11.24,0,0,1-5.42,1.27,4.44,4.44,0,0,1-3.12-1.16,25.16,25.16,0,0,1-2.41-2.54,23.84,23.84,0,0,0-2.43-2.54,4.55,4.55,0,0,0-3.15-1.16,9.93,9.93,0,0,0-4.84,1.4,41.14,41.14,0,0,0-5,3.36q-2.54,2-5,4.07A38.28,38.28,0,0,1,92,115V90.41A3.17,3.17,0,0,0,91.29,89c0-.05-13.29,18.55-13.29,18.55-.46,2.06-1.06,4.73-1.63,6.76q-1.06,3.78-2,7.53t-1.56,7.59a48.08,48.08,0,0,0-.63,7.85A4.94,4.94,0,0,0,73,140a9.87,9.87,0,0,0,2.11,2.35A11.21,11.21,0,0,0,78,144a7.61,7.61,0,0,0,2.91.63h1.22l17.29-14.75a25,25,0,0,0,1.35,3.09,20.22,20.22,0,0,0,2,3.22,13,13,0,0,0,2.51,2.51,4.53,4.53,0,0,0,2.72,1h1.27q4.23-4.81,8.3-8.62,1.74-1.59,3.59-3.15a41.09,41.09,0,0,1,3.68-2.78,22.48,22.48,0,0,1,3.54-2,7.94,7.94,0,0,1,3.09-.74,42.93,42.93,0,0,1-1.16,10q-1.16,4.89-2.54,9.73t-2.54,9.75a43.27,43.27,0,0,0-1.16,10,24.85,24.85,0,0,0,.29,3q.29,2.09.71,4.81t1,5.71q.55,3,1.11,5.71t1,4.84a30.15,30.15,0,0,0,.79,3h2.48a6.36,6.36,0,0,0,1.8-.26,4.32,4.32,0,0,0,1.59-.85,4.23,4.23,0,0,0,1.11-1.53,5.72,5.72,0,0,0,.42-2.33l-2.48-4.92v-9.83A80,80,0,0,1,136,151.4a150.62,150.62,0,0,1,5.34-18q3.25-8.91,7.19-17.32t7.64-15.81A21.47,21.47,0,0,0,155,97.52,11.08,11.08,0,0,0,153.38,95.14Z"/><path class="cls-1" d="M0,131.91a12.69,12.69,0,0,1,.32-2.75q.32-1.43.63-2.88t.5-2.88a8.44,8.44,0,0,0-.08-2.75L8.46,79.73A10,10,0,0,1,8.3,77a9.16,9.16,0,0,1,.63-2.72,9.41,9.41,0,0,1,1.45-2.46,8.49,8.49,0,0,1,2.25-1.93l2.86,2.8q0,.11-.42,2.06T14,79.94l-1.59,7.43q-.9,4.2-1.82,8.86t-1.82,9.49q-.9,4.84-1.59,9.31T6,123.32a60.53,60.53,0,0,0-.42,6.48c0,.35,0,.63,0,.82a1,1,0,0,0,.16.48,1.49,1.49,0,0,0,.42.37,9.19,9.19,0,0,0,.82.45q1.85-2.38,4.28-6.05t5.26-8.09q2.83-4.41,6-9.25T28.95,99Q32.2,94.27,35.5,90A87.08,87.08,0,0,1,42,82.59a37,37,0,0,1,6.11-5.13,10.14,10.14,0,0,1,5.42-1.9h1.38l2.86,5.6V115h1.38q1.8-1.9,5-6.19t7.59-10.2l9.6-13.11Q86.6,78.3,92.47,70.56t12.13-15.68q6.26-7.93,12.61-15.28T129.8,25.8a148.58,148.58,0,0,1,12-11.24A66.32,66.32,0,0,1,152.8,7a20.41,20.41,0,0,1,9.41-2.75H163a189.65,189.65,0,0,0-18.61,14.88Q135.72,27,128.08,35.48T113.59,52.87Q106.75,61.81,100.27,71T87.48,89.46Q81.16,98.77,74.6,108a18.81,18.81,0,0,0-1.74,2.33q-1.22,1.8-2.86,4.39l-3.6,5.71-3.94,6.29-3.86,6.16q-1.88,3-3.38,5.29t-2.54,3.7q-1,1.4-1.3,1.4a3,3,0,0,1-2-.61,3.62,3.62,0,0,1-1.06-1.53,6.71,6.71,0,0,1-.4-2q-.05-1.11-.05-2.17a79.76,79.76,0,0,1,.66-10.2q.66-5.13,1.45-10.36t1.45-10.49a84.52,84.52,0,0,0,.66-10.55V85.39L50.65,84a92.53,92.53,0,0,0-8.46,8.12Q38,96.7,33.86,102t-7.93,10.94q-3.83,5.68-7.3,11.39t-6.4,11.24Q9.31,141.06,7,146H1.38q-.37,0-.58-.85A18,18,0,0,1,.42,143q-.16-1.32-.24-3t-.13-3.2Q0,135.25,0,133.92ZM165.8,2.12a.44.44,0,0,1,.4.21.93.93,0,0,1,.13.5.93.93,0,0,1-.13.5.44.44,0,0,1-.4.21.5.5,0,0,1-.42-.21.81.81,0,0,1-.16-.5.81.81,0,0,1,.16-.5A.5.5,0,0,1,165.8,2.12ZM171.41,0l-2.86,1.43A2.59,2.59,0,0,1,169.64.19,3.12,3.12,0,0,1,170.72,0Z"/><path class="cls-1" d="M64.21,73c1.87-11.25,4.47-21.88-1.49-34.72C73.92,42.88,81,36.75,90,34.11c-6.1,9.45-7.12,17.63,4,26.89C78.44,56.5,70.74,63.26,64.21,73Z"/><path class="cls-1" d="M163.26,38c-5.68-2.86-10.24-1.92-16,.18,2.67-5.36,4.2-9.71.81-17,7.07,5.61,11.33,1.88,17-1C162.33,26.69,159.53,31.36,163.26,38Z"/></svg>