<?xml version="1.0" encoding="utf-8"?>
<!-- Generator: Adobe Illustrator 21.0.2, SVG Export Plug-In . SVG Version: 6.00 Build 0)  -->
<svg version="1.1" id="Capa_1" xmlns="http://www.w3.org/2000/svg" xmlns:xlink="http://www.w3.org/1999/xlink" x="0px" y="0px"
	 viewBox="0 0 53.1 53.1" style="enable-background:new 0 0 53.1 53.1;" xml:space="preserve">
<style type="text/css">
	.st0{fill:#FFFFFF;}
</style>
<g>
	<path class="st0" d="M0,26.6C-0.1,12.4,11.5,0,26.6,0c15.1,0,26.6,12.4,26.6,26.6c0,14.7-12,26.6-26.8,26.5
		C11.5,53-0.1,40.8,0,26.6z M50,26.6C50.1,13.9,39.6,3.1,26.5,3.1C13.9,3.1,3.2,13.4,3.1,26.3C3,39.7,13.9,50,26.4,50
		C39.4,50.1,50.1,39.4,50,26.6z"/>
	<path class="st0" d="M33.2,11.9c0,0.6,0,1.2,0,1.7c0,0.9,0,1.9,0,2.8c0,0.6,0,0.6-0.6,0.6c-0.7,0-1.4,0-2.1,0c-0.2,0-0.5,0-0.7,0.1
		c-0.6,0.1-0.9,0.4-1,1.1c0,1,0,2,0,3.1c0.2,0,0.3,0,0.5,0c1.1,0,2.3,0,3.4,0c0.3,0,0.5,0.1,0.4,0.4c-0.2,1.4-0.3,2.8-0.4,4.3
		c0,0.3-0.2,0.3-0.4,0.3c-1,0-2,0-3,0c-0.2,0-0.3,0-0.5,0c0,0.2,0,0.4,0,0.6c0,4.3,0,8.7,0,13c0,0.6,0,0.6-0.6,0.6
		c-1.6,0-3.3,0-4.9,0c-0.4,0-0.5-0.1-0.5-0.5c0-4.4,0-8.7,0-13.1c0-0.2,0-0.3,0-0.6c-0.7,0-1.4,0-2.1,0c-0.8,0-0.8,0-0.8-0.9
		c0-1.2,0-2.4,0-3.7c0-0.4,0.1-0.5,0.5-0.5c0.8,0,1.6,0,2.4,0c0-0.2,0-0.4,0-0.6c0-1.3,0-2.7,0.2-4c0.3-2.7,1.8-4.2,4.6-4.5
		C29.4,11.9,31.3,12,33.2,11.9z"/>
</g>
</svg>
